<?xml version="1.0" encoding="UTF-8" standalone="no"?>
<!DOCTYPE svg PUBLIC "-//W3C//DTD SVG 1.1//EN" "http://www.w3.org/Graphics/SVG/1.1/DTD/svg11.dtd">
<svg width="856" height="677" viewBox="0 0 856 677" version="1.1" xmlns="http://www.w3.org/2000/svg" xmlns:xlink="http://www.w3.org/1999/xlink" xml:space="preserve" xmlns:serif="http://www.serif.com/" style="fill-rule:evenodd;clip-rule:evenodd;stroke-linejoin:round;stroke-miterlimit:2;">
    <g transform="matrix(1,0,0,1,-151.342,-111.997)">
        <path d="M769.658,696.851L767.658,696.851L767.658,478.003C767.661,476.198 766.847,474.486 765.445,473.35L766.709,471.799C768.577,473.315 769.662,475.597 769.658,478.003L769.658,696.851Z" style="fill:rgb(63,61,86);fill-rule:nonzero;"/>
    </g>
    <g transform="matrix(1,0,0,1,-151.342,-111.997)">
        <path d="M565.922,135.23C566.439,136.411 566.825,137.645 567.072,138.91C566.512,136.98 566.072,135.67 565.922,135.23Z" style="fill:rgb(63,61,86);fill-rule:nonzero;"/>
    </g>
    <g transform="matrix(1,0,0,1,-151.342,-111.997)">
        <path d="M583.662,196.37C583.662,196.37 583.662,197.75 582.172,202.73L583.662,196.37Z" style="fill:rgb(63,61,86);fill-rule:nonzero;"/>
    </g>
    <g transform="matrix(1,0,0,1,-151.342,-111.997)">
        <path d="M766.252,404.68C726.922,425.18 675.472,442.88 660.062,448.01C671.812,444.95 706.012,440.83 759.002,473.89C825.582,515.42 896.772,487.73 896.772,487.73C896.772,487.73 880.952,518.06 847.332,520.03C813.712,522.01 726.042,466.64 696.382,482.46C666.712,498.28 652.872,478.5 641.002,518.06C629.142,557.61 607.392,665.71 632.442,726.36L657.482,787L515.102,787C515.102,787 566.522,649.89 538.172,565.52C522.302,518.27 500.022,484.05 491.712,466.66C487.542,457.95 486.882,453.47 492.282,453.69C495.352,453.82 500.382,455.47 507.852,458.73C507.852,458.73 473.572,425.11 462.372,425.11C451.162,425.11 398.422,419.84 381.292,402.04C381.292,402.04 356.902,384.9 313.392,427.09C269.882,469.28 280.432,469.28 241.542,465.98C203.262,462.73 173.272,444.16 172.342,443.58C173.452,444.03 218.162,461.9 245.492,452.8C273.182,443.57 296.912,408.63 321.302,396.77C345.692,384.9 360.192,369.08 393.152,386.22L371.432,335.01L365.482,320.98L365.472,320.96C365.472,320.96 358.212,224.72 344.372,218.13C330.532,211.53 339.102,194.4 313.392,191.1C313.392,191.1 345.032,187.14 350.962,208.9C356.902,230.65 397.772,347.99 397.772,347.99C397.772,347.99 422.812,398.08 450.502,386.22C478.192,374.35 439.952,307.78 439.952,307.78L392.492,286.02C392.492,286.02 428.092,284.7 449.842,305.14C471.592,325.57 472.912,391.49 472.912,391.49C472.912,391.49 527.622,399.4 540.812,429.07C540.812,429.07 549.382,402.7 532.902,386.88C528.782,382.92 524.452,376.04 520.282,367.95C504.477,336.904 498.763,301.681 503.942,267.23C506.392,250.37 507.902,233.88 505.212,229.99C499.282,221.42 474.232,168.69 472.252,154.84C470.282,141 474.232,112 474.232,112C474.232,112 474.892,147.59 482.802,158.8C490.712,170.01 513.122,225.38 513.122,225.38C513.122,225.38 513.122,295.25 531.582,329.53C550.042,363.81 585.632,402.04 583.662,427.09L583.662,441.59C583.662,441.59 623.212,404.02 620.572,391.49C617.932,378.97 614.642,349.3 589.592,331.51C564.542,313.71 548.062,285.36 565.862,244.49C575.872,221.5 580.252,209.15 582.172,202.74L571.792,247.13C571.792,247.13 565.202,292.61 583.662,308.43C583.712,308.47 583.752,308.51 583.802,308.55C602.232,324.39 626.502,353.26 626.502,353.26L626.432,351.99L621.232,258.34L622.372,260.84L630.592,278.86L638.372,295.91C638.372,295.91 675.282,248.45 718.792,232.63C762.292,216.81 789.322,161.44 789.322,161.44L826.242,132.43L795.912,168.69C795.912,168.69 786.682,211.53 734.612,241.86C682.532,272.18 648.922,317 646.942,344.69C644.962,372.38 642.982,396.77 642.982,396.77C642.982,396.77 740.542,393.47 762.292,350.62C784.052,307.78 801.852,305.8 801.852,305.8L789.322,342.71L775.482,374.35C775.482,374.35 832.172,375.67 861.832,409.29C891.502,442.91 965.322,452.8 965.322,452.8L923.802,464C923.802,464 884.242,450.82 846.672,426.43C809.102,402.04 813.052,380.29 766.252,404.68Z" style="fill:rgb(63,61,86);fill-rule:nonzero;"/>
    </g>
    <g transform="matrix(1,0,0,1,-151.342,-111.997)">
        <path d="M787.272,314.74C783.102,333.2 778.192,351.03 771.292,364.62C749.542,407.47 651.982,410.77 651.982,410.77C651.982,410.77 652.442,405.11 653.142,396.18C677.912,394.14 745.622,385.43 763.292,350.62C764.912,347.44 766.412,344.02 767.832,340.42L787.272,314.74Z" style="fill-opacity:0.1;fill-rule:nonzero;"/>
    </g>
    <g transform="matrix(1,0,0,1,-151.342,-111.997)">
        <path d="M635.502,367.26C635.502,367.26 611.112,338.25 592.662,322.43C588.612,318.97 585.772,314.07 583.802,308.55C583.642,308.11 583.492,307.66 583.342,307.21C583.772,307.63 584.202,308.04 584.662,308.43C600.812,322.28 621.522,346.24 626.432,351.99C627.122,352.81 627.502,353.26 627.502,353.26L622.372,260.84L630.592,278.86L635.502,367.26Z" style="fill-opacity:0.1;fill-rule:nonzero;"/>
    </g>
    <g transform="matrix(1,0,0,1,-151.342,-111.997)">
        <path d="M649.621,284.027C649.477,300.257 647.37,309.91 647.37,309.91C647.37,309.91 684.269,262.469 727.764,246.638C730.334,245.012 732.942,243.411 735.611,241.857C787.687,211.534 796.915,168.687 796.915,168.687L827.238,132.432L790.324,161.436C790.324,161.436 763.297,216.808 719.791,232.628C690.135,243.412 663.547,268.893 649.621,284.027Z" style="fill-opacity:0.1;fill-rule:nonzero;"/>
    </g>
    <g transform="matrix(1,0,0,1,-151.342,-111.997)">
        <path d="M592.658,441.088L592.658,455.59C592.658,455.59 632.209,418.016 629.572,405.492C627.556,395.913 625.141,376.315 612.919,359.662C618.428,372.247 620.105,384.523 621.572,391.492C623.463,400.473 603.661,422.334 592.305,433.985C592.703,436.33 592.822,438.714 592.658,441.088Z" style="fill-opacity:0.1;fill-rule:nonzero;"/>
    </g>
    <g transform="matrix(1,0,0,1,-151.342,-111.997)">
        <path d="M539.604,341.567C539.917,342.235 540.24,342.893 540.582,343.528C550.691,362.301 565.93,382.256 577.332,400.586C568.117,382.434 552.08,361.676 539.604,341.567Z" style="fill-opacity:0.1;fill-rule:nonzero;"/>
    </g>
    <g transform="matrix(1,0,0,1,-151.342,-111.997)">
        <path d="M760.001,473.89C738.317,460.364 719.782,453.065 704.641,449.367C688.759,455.345 675.687,459.802 669.11,461.991C680.906,458.937 715.082,454.881 768.001,487.89C809.522,513.789 852.834,512.768 879.557,508.331C886.947,502.755 893.142,495.75 897.771,487.733C902.4,479.716 826.579,515.419 760.001,473.89Z" style="fill-opacity:0.1;fill-rule:nonzero;"/>
    </g>
    <g transform="matrix(1,0,0,1,-151.342,-111.997)">
        <path d="M571.74,313.503C566.425,300.479 565.549,284.981 571.656,266.82C571.579,260.238 571.959,253.659 572.792,247.13L583.172,202.729C581.258,209.132 576.88,221.485 566.86,244.493C554.175,273.622 558.909,296.383 571.74,313.503Z" style="fill-opacity:0.1;fill-rule:nonzero;"/>
    </g>
    <g transform="matrix(1,0,0,1,-151.342,-111.997)">
        <path d="M862.834,409.29C842.262,385.975 808.698,378.197 790.052,375.618L784.481,388.353C784.481,388.353 841.171,389.671 870.834,423.29C887.284,441.933 917.311,453.275 940.802,459.683L966.326,452.796C966.326,452.796 892.497,442.908 862.834,409.29Z" style="fill-opacity:0.1;fill-rule:nonzero;"/>
    </g>
    <g transform="matrix(1,0,0,1,-151.342,-111.997)">
        <path d="M459.502,400.218C487.188,388.353 448.955,321.775 448.955,321.775L447.909,321.296C457.441,341.406 471.265,377.749 451.502,386.218C433.01,394.144 415.696,374.426 406.235,360.456C406.579,361.444 406.768,361.986 406.768,361.986C406.768,361.986 431.816,412.084 459.502,400.218Z" style="fill-opacity:0.1;fill-rule:nonzero;"/>
    </g>
    <g transform="matrix(1,0,0,1,-151.342,-111.997)">
        <path d="M549.811,443.065C549.811,443.065 558.153,417.351 542.481,401.474C546.324,415.151 541.811,429.065 541.811,429.065C531.612,406.119 496.568,396.191 481.219,392.871C481.814,400.511 481.915,405.492 481.915,405.492C481.915,405.492 536.627,413.402 549.811,443.065Z" style="fill-opacity:0.1;fill-rule:nonzero;"/>
    </g>
    <g transform="matrix(1,0,0,1,-151.342,-111.997)">
        <path d="M583.172,202.729C584.657,197.759 584.658,196.373 584.658,196.373L583.172,202.729Z" style="fill-opacity:0.1;fill-rule:nonzero;"/>
    </g>
    <g transform="matrix(1,0,0,1,-151.342,-111.997)">
        <path d="M254.096,466.922C254.229,466.879 254.364,466.84 254.496,466.796C282.181,457.567 305.912,422.631 330.302,410.765C354.692,398.9 369.194,383.08 402.153,400.218C402.153,400.218 396.387,376.616 385.213,361.109C388.914,369.205 391.905,377.606 394.153,386.218C361.194,369.08 346.692,384.9 322.302,396.765C297.912,408.631 274.181,443.567 246.496,452.796C218.81,462.025 173.326,443.567 173.326,443.567C173.326,443.567 203.649,462.684 242.541,465.98C246.99,466.357 250.786,466.689 254.096,466.922Z" style="fill-opacity:0.1;fill-rule:nonzero;"/>
    </g>
    <g transform="matrix(1,0,0,1,-151.342,-111.997)">
        <path d="M374.472,334.96C374.472,334.96 373.392,334.98 371.432,335.01L365.482,320.98C366.132,320.97 366.472,320.96 366.472,320.96C366.472,320.96 361.892,260.26 353.072,231.97C353.182,232.02 353.272,232.08 353.372,232.13C367.212,238.72 374.472,334.96 374.472,334.96Z" style="fill-opacity:0.1;fill-rule:nonzero;"/>
    </g>
    <g transform="matrix(1,0,0,1,-151.342,-111.997)">
        <path d="M528.918,787.003C540.996,749.977 570.043,647.592 547.174,579.517C537.298,550.118 528.144,531.371 520.405,519.411C526.192,530.733 532.52,545.708 539.174,565.517C567.519,649.892 516.102,787.003 516.102,787.003L528.918,787.003Z" style="fill-opacity:0.1;fill-rule:nonzero;"/>
    </g>
    <g transform="matrix(1,0,0,1,-151.342,-111.997)">
        <path d="M516.852,472.73C508.898,469.233 500.385,467.177 491.712,466.66C487.542,457.95 486.882,453.47 492.282,453.69C493.782,453.96 495.292,454.28 496.792,454.65C507.392,463.45 516.852,472.73 516.852,472.73Z" style="fill-opacity:0.1;fill-rule:nonzero;"/>
    </g>
    <g transform="matrix(1,0,0,1,-151.342,-111.997)">
        <path d="M338.397,211.727C339.149,212.993 340.06,214.158 341.108,215.192C340.338,213.938 339.429,212.776 338.397,211.727Z" style="fill-opacity:0.1;fill-rule:nonzero;"/>
    </g>
    <g transform="matrix(1,0,0,1,-151.342,-111.997)">
        <path d="M458.843,319.139C459.862,320.102 460.817,321.131 461.701,322.22C458.813,315.278 455.247,309.276 450.843,305.139C429.09,284.704 393.494,286.022 393.494,286.022L438.135,306.483C445.784,309.336 452.815,313.633 458.843,319.139Z" style="fill-opacity:0.1;fill-rule:nonzero;"/>
    </g>
    <g transform="matrix(1,0,0,1,-151.342,-111.997)">
        <path d="M506.215,229.991C508.905,233.877 507.393,250.367 504.938,267.232C499.761,301.682 505.477,336.903 521.283,367.947C523.383,372.101 525.729,376.128 528.307,380.004C513.244,349.418 507.88,314.949 512.938,281.232C515.393,264.367 516.905,247.877 514.215,243.991C508.282,235.422 483.233,182.687 481.255,168.844C480.663,163.474 480.524,158.063 480.842,152.669C475.722,138.141 475.233,111.997 475.233,111.997C475.233,111.997 471.278,141.001 473.255,154.844C475.233,168.687 500.282,221.422 506.215,229.991Z" style="fill-opacity:0.1;fill-rule:nonzero;"/>
    </g>
    <g transform="matrix(1,0,0,1,-151.342,-111.997)">
        <path d="M568.056,138.861C567.792,137.559 567.391,136.287 566.86,135.069C566.328,133.85 567.366,136.491 568.056,138.861Z" style="fill-opacity:0.1;fill-rule:nonzero;"/>
    </g>
    <g transform="matrix(1,0,0,1,-151.342,-111.997)">
        <path d="M335.229,205.25C341.039,205.961 347.722,207.744 352.819,211.878C352.486,210.753 352.196,209.745 351.965,208.898C346.033,187.144 314.392,191.1 314.392,191.1C328.691,192.933 332.384,199.049 335.229,205.25Z" style="fill-opacity:0.1;fill-rule:nonzero;"/>
    </g>
    <g transform="matrix(1,0,0,1,-151.342,-111.997)">
        <path d="M956.856,753.135C947.025,768.211 949.719,787.386 949.719,787.386C949.719,787.386 968.352,782.118 978.183,767.042C988.014,751.965 985.32,732.79 985.32,732.79C985.32,732.79 966.687,738.059 956.856,753.135Z" style="fill:rgb(63,61,86);fill-rule:nonzero;"/>
    </g>
    <g transform="matrix(1,0,0,1,-151.342,-111.997)">
        <path d="M964.241,755.8C963.464,773.782 950.116,787.809 950.116,787.809C950.116,787.809 938.028,772.683 938.805,754.701C939.582,736.72 952.93,722.692 952.93,722.692C952.93,722.692 965.018,737.819 964.241,755.8Z" style="fill:rgb(25,118,210);fill-rule:nonzero;"/>
    </g>
    <g transform="matrix(1,0,0,1,-151.342,-111.997)">
        <path d="M791.088,642.007C791.088,642.007 802.4,630.14 807.029,632.528C811.659,634.915 793.718,645.527 793.718,645.527L791.088,642.007Z" style="fill:rgb(255,185,185);fill-rule:nonzero;"/>
    </g>
    <g transform="matrix(1,0,0,1,-151.342,-111.997)">
        <path d="M791.088,642.007C791.088,642.007 802.4,630.14 807.029,632.528C811.659,634.915 793.718,645.527 793.718,645.527L791.088,642.007Z" style="fill-opacity:0.1;fill-rule:nonzero;"/>
    </g>
    <g transform="matrix(1,0,0,1,-151.342,-111.997)">
        <path d="M756.574,616.106C756.574,616.106 752.416,623.56 753.504,631.594C754.592,639.629 764.543,665.412 767.926,664.954C771.309,664.495 796.369,646.029 796.369,646.029L791.59,639.356L773.283,650.448C773.283,650.448 770.494,610.776 756.574,616.106Z" style="fill:rgb(208,205,225);fill-rule:nonzero;"/>
    </g>
    <g transform="matrix(1,0,0,1,-151.342,-111.997)">
        <path d="M824.456,634.251L795.916,649.927C795.693,650.075 795.432,650.154 795.164,650.154C794.624,650.154 794.133,649.832 793.918,649.337L786.927,634.724C786.654,633.867 787.054,632.929 787.862,632.533L811.556,620.32C812.158,619.958 812.944,620.108 813.369,620.666L825.205,631.817C825.353,632.08 825.43,632.376 825.43,632.677C825.43,633.343 825.052,633.954 824.456,634.251Z" style="fill:rgb(47,46,65);fill-rule:nonzero;"/>
    </g>
    <g transform="matrix(1,0,0,1,21.0001,0)">
        <path d="M650.209,520.094L623.454,535.387L616.334,522.555L639.286,510.073L650.209,520.094Z" style="fill:rgb(25,118,210);fill-rule:nonzero;"/>
    </g>
    <g transform="matrix(0.640666,-0.767819,0.767819,0.640666,-345.704,727.606)">
        <ellipse cx="799.845" cy="627.456" rx="0.394" ry="0.336" style="fill:rgb(242,242,242);"/>
    </g>
    <g transform="matrix(0.640666,-0.767819,0.767819,0.640666,-352.215,739.951)">
        <ellipse cx="809.779" cy="640.585" rx="0.263" ry="0.224" style="fill:rgb(242,242,242);"/>
    </g>
    <g transform="matrix(1,0,0,1,-151.342,-111.997)">
        <path d="M756.574,616.106C756.574,616.106 752.416,623.56 753.504,631.594C754.592,639.629 764.543,665.412 767.926,664.954C771.309,664.495 796.369,646.029 796.369,646.029L791.59,639.356L773.283,650.448C773.283,650.448 770.494,610.776 756.574,616.106Z" style="fill-opacity:0.1;fill-rule:nonzero;"/>
    </g>
    <g transform="matrix(1,0,0,1,-151.342,-111.997)">
        <path d="M783.44,644.275C783.44,644.275 796.242,634.033 800.51,637.02C804.777,640.008 785.574,648.116 785.574,648.116L783.44,644.275Z" style="fill:rgb(255,185,185);fill-rule:nonzero;"/>
    </g>
    <g transform="matrix(1,0,0,1,21.0001,0)">
        <circle cx="594.028" cy="478.935" r="12.376" style="fill:rgb(255,185,185);"/>
    </g>
    <g transform="matrix(1,0,0,1,-151.342,-111.997)">
        <path d="M809.045,677.134C809.045,677.134 822.274,678.841 821.847,686.949C821.42,695.058 811.605,728.77 811.605,728.77L810.752,741.999C810.752,741.999 811.605,764.19 809.045,763.763C806.484,763.337 800.51,747.974 800.51,747.974C800.51,747.974 793.255,743.28 796.669,739.012C800.083,734.745 802.643,735.172 801.79,730.477C800.936,725.783 801.363,706.153 803.924,700.179C806.484,694.204 807.976,690.909 807.976,690.909L799.656,690.363L809.045,677.134Z" style="fill:rgb(255,185,185);fill-rule:nonzero;"/>
    </g>
    <g transform="matrix(1,0,0,1,-151.342,-111.997)">
        <path d="M809.045,677.134C809.045,677.134 822.274,678.841 821.847,686.949C821.42,695.058 811.605,728.77 811.605,728.77L810.752,741.999C810.752,741.999 811.605,764.19 809.045,763.763C806.484,763.337 800.51,747.974 800.51,747.974C800.51,747.974 793.255,743.28 796.669,739.012C800.083,734.745 802.643,735.172 801.79,730.477C800.936,725.783 801.363,706.153 803.924,700.179C806.484,694.204 807.976,690.909 807.976,690.909L799.656,690.363L809.045,677.134Z" style="fill-opacity:0.1;fill-rule:nonzero;"/>
    </g>
    <g transform="matrix(1,0,0,1,-151.342,-111.997)">
        <path d="M809.898,679.268C809.898,679.268 822.7,682.255 823.981,690.79C825.261,699.325 831.662,724.503 831.662,724.503L838.49,740.293C838.49,740.293 849.159,759.496 844.464,759.069C839.77,758.643 833.369,749.254 831.235,749.254C829.102,749.254 822.7,746.694 823.127,744.987C823.554,743.28 826.541,738.159 826.541,738.159L816.217,720.174C814.223,716.702 812.716,712.973 811.738,709.091C810.678,704.879 809.471,699.719 809.471,698.045C809.471,695.058 800.937,693.777 800.937,693.777L809.898,679.268Z" style="fill:rgb(255,185,185);fill-rule:nonzero;"/>
    </g>
    <g transform="matrix(1,0,0,1,-151.342,-111.997)">
        <path d="M768.077,651.956L774.052,669.026C774.052,669.026 783.44,671.587 790.268,673.72C797.096,675.854 809.898,672.867 811.178,677.988C812.459,683.109 808.618,692.07 804.777,694.204C800.936,696.338 798.803,698.472 786.427,695.058C774.052,691.644 744.606,690.79 744.606,690.79C741.752,692.503 738.537,693.526 735.218,693.777C729.67,694.204 728.39,694.631 726.683,693.351C724.976,692.07 727.536,692.07 728.39,688.656C729.244,685.243 729.67,686.523 733.511,682.682C737.352,678.841 740.339,667.319 742.473,663.479C744.606,659.638 745.887,651.956 745.887,651.956L768.077,651.956Z" style="fill:rgb(47,46,65);fill-rule:nonzero;"/>
    </g>
    <g transform="matrix(1,0,0,1,-151.342,-111.997)">
        <path d="M767.224,601.174C764.084,603.468 762.188,607.101 762.103,610.989C762.103,617.39 749.3,604.161 749.3,604.161C749.3,604.161 756.128,595.626 756.128,593.066C756.128,590.505 767.224,601.174 767.224,601.174Z" style="fill:rgb(255,185,185);fill-rule:nonzero;"/>
    </g>
    <g transform="matrix(1,0,0,1,-151.342,-111.997)">
        <path d="M751.007,598.613C751.007,598.613 758.689,601.601 760.396,605.868C762.103,610.136 768.504,619.097 768.504,619.097C768.504,619.097 777.466,628.486 774.478,638.727C771.491,648.969 768.931,651.53 768.931,653.237C768.931,654.944 764.663,657.931 761.249,657.504C757.835,657.077 745.033,655.37 744.18,653.663C743.326,651.956 738.205,627.632 741.619,618.67C744.389,611.822 747.522,605.127 751.007,598.613Z" style="fill:rgb(208,205,225);fill-rule:nonzero;"/>
    </g>
    <g transform="matrix(1,0,0,1,-151.342,-111.997)">
        <path d="M769.96,591.495C772.729,592.152 775.447,590.388 777.716,588.639C779.005,587.645 780.423,586.229 780.028,584.63C779.678,583.211 778.007,582.407 777.764,580.966C777.595,579.964 778.18,578.99 778.228,577.974C778.142,576.399 777.181,574.998 775.743,574.35C774.394,573.624 772.864,573.321 771.477,572.671C769.361,571.678 767.601,569.888 765.341,569.314C762.252,568.531 759.108,570.199 755.932,570.415C754.011,570.546 752.065,570.14 750.164,570.456C746.445,571.208 743.704,574.437 743.567,578.229C743.543,579.587 743.814,581.102 743.003,582.18C742.683,582.551 742.318,582.881 741.918,583.163C739.094,585.446 737.812,589.261 737.666,592.937C737.594,594.746 737.973,596.894 739.578,597.663C740.438,597.958 741.346,598.084 742.253,598.035C743.178,597.996 744.064,598.419 744.615,599.163C745.346,600.452 744.251,602.357 745.207,603.483C745.926,604.328 747.327,604.047 748.166,603.327C749.005,602.607 749.528,601.571 750.323,600.8C751.87,599.302 754.164,599.031 756.284,598.803C756.913,598.798 757.524,598.597 758.033,598.229C758.418,597.825 758.669,597.311 758.75,596.759C759.029,595.487 759.033,594.171 758.761,592.898C758.626,592.504 758.609,592.079 758.712,591.676C758.852,591.389 759.069,591.146 759.338,590.975C760.652,589.988 762.954,588.55 764.662,588.822C766.557,589.124 768.048,591.042 769.96,591.495Z" style="fill:rgb(47,46,65);fill-rule:nonzero;"/>
    </g>
    <g transform="matrix(1,0,0,1,-151.342,-111.997)">
        <path d="M752.714,613.976C752.714,613.976 747.593,620.804 747.593,628.912C747.593,637.02 753.995,663.905 757.409,663.905C760.823,663.905 788.134,648.969 788.134,648.969L784.293,641.715L764.663,650.249C764.663,650.249 767.224,610.562 752.714,613.976Z" style="fill:rgb(208,205,225);fill-rule:nonzero;"/>
    </g>
    <g transform="matrix(1,0,0,1,21.0001,0)">
        <rect x="540.316" y="579.006" width="98" height="19" style="fill:rgb(25,118,210);"/>
    </g>
    <g transform="matrix(1,0,0,1,-151.342,-111.997)">
        <path d="M761.658,711.003C757.271,710.998 753.663,707.39 753.658,703.003L753.658,478.003C753.658,473.614 757.269,470.003 761.658,470.003C763.498,470.003 765.282,470.637 766.709,471.799L765.445,473.35C764.375,472.479 763.037,472.003 761.658,472.003C758.366,472.003 755.658,474.711 755.658,478.002C755.658,478.003 755.658,478.003 755.658,478.003L755.658,703.003C755.662,706.293 758.368,708.999 761.658,709.003L761.658,711.003Z" style="fill:rgb(63,61,86);fill-rule:nonzero;"/>
    </g>
    <g transform="matrix(1.06119,0,0,1.06119,-52.3334,-41.2397)">
        <rect x="49.316" y="674.006" width="806" height="2" style="fill:rgb(63,61,86);"/>
    </g>
    <g transform="matrix(0.779685,-0.626172,0.626172,0.779685,-352.343,482.731)">
        <ellipse cx="744.658" cy="583.003" rx="1" ry="3" style="fill:rgb(25,118,210);"/>
    </g>
    <g transform="matrix(1,0,0,1,-151.342,-111.997)">
        <path d="M660.856,753.135C651.025,768.211 653.719,787.386 653.719,787.386C653.719,787.386 672.352,782.118 682.183,767.042C692.014,751.965 689.32,732.79 689.32,732.79C689.32,732.79 670.687,738.059 660.856,753.135Z" style="fill:rgb(63,61,86);fill-rule:nonzero;"/>
    </g>
    <g transform="matrix(1,0,0,1,-151.342,-111.997)">
        <path d="M668.241,755.8C667.464,773.782 654.116,787.809 654.116,787.809C654.116,787.809 642.028,772.683 642.805,754.701C643.582,736.72 656.93,722.692 656.93,722.692C656.93,722.692 669.018,737.819 668.241,755.8Z" style="fill:rgb(25,118,210);fill-rule:nonzero;"/>
    </g>
    <g transform="matrix(1,0,0,1,-151.342,-111.997)">
        <path d="M499.067,758.838C503.767,776.212 519.866,786.972 519.866,786.972C519.866,786.972 528.344,769.563 523.644,752.189C518.944,734.816 502.846,724.055 502.846,724.055C502.846,724.055 494.367,741.464 499.067,758.838Z" style="fill:rgb(63,61,86);fill-rule:nonzero;"/>
    </g>
    <g transform="matrix(1,0,0,1,-151.342,-111.997)">
        <path d="M505.974,755.104C518.87,767.659 520.446,786.958 520.446,786.958C520.446,786.958 501.111,785.902 488.214,773.348C475.318,760.793 473.742,741.494 473.742,741.494C473.742,741.494 493.077,742.55 505.974,755.104Z" style="fill:rgb(25,118,210);fill-rule:nonzero;"/>
    </g>
    <g transform="matrix(1,0,0,1,-151.342,-111.997)">
        <path d="M463.228,284.044C462.107,302.007 448.493,315.776 448.493,315.776C448.493,315.776 436.696,300.421 437.818,282.458C438.939,264.494 452.553,250.725 452.553,250.725C452.553,250.725 464.349,266.08 463.228,284.044Z" style="fill:rgb(25,118,210);fill-rule:nonzero;"/>
    </g>
    <g transform="matrix(1,0,0,1,-151.342,-111.997)">
        <path d="M321.312,170.482C336.537,180.081 342.09,198.631 342.09,198.631C342.09,198.631 322.959,201.618 307.734,192.019C292.509,182.42 286.955,163.871 286.955,163.871C286.955,163.871 306.087,160.883 321.312,170.482Z" style="fill:rgb(25,118,210);fill-rule:nonzero;"/>
    </g>
    <g transform="matrix(1,0,0,1,-151.342,-111.997)">
        <path d="M287.312,389.482C302.537,399.081 308.09,417.631 308.09,417.631C308.09,417.631 288.959,420.618 273.734,411.019C258.509,401.42 252.955,382.871 252.955,382.871C252.955,382.871 272.087,379.883 287.312,389.482Z" style="fill:rgb(25,118,210);fill-rule:nonzero;"/>
    </g>
    <g transform="matrix(1,0,0,1,-151.342,-111.997)">
        <path d="M596.832,202.498C592.24,219.901 576.209,230.761 576.209,230.761C576.209,230.761 567.623,213.406 572.214,196.003C576.805,178.6 592.836,167.74 592.836,167.74C592.836,167.74 601.423,185.095 596.832,202.498Z" style="fill:rgb(25,118,210);fill-rule:nonzero;"/>
    </g>
    <g transform="matrix(1,0,0,1,-151.342,-111.997)">
        <path d="M741.667,216.068C736.271,233.238 719.752,243.34 719.752,243.34C719.752,243.34 711.982,225.604 717.379,208.434C722.775,191.264 739.294,181.161 739.294,181.161C739.294,181.161 747.064,198.897 741.667,216.068Z" style="fill:rgb(25,118,210);fill-rule:nonzero;"/>
    </g>
    <g transform="matrix(1,0,0,1,-151.342,-111.997)">
        <path d="M898.212,407.165C888.436,422.277 869.823,427.614 869.823,427.614C869.823,427.614 867.059,408.449 876.834,393.337C886.61,378.224 905.223,372.888 905.223,372.888C905.223,372.888 907.987,392.053 898.212,407.165Z" style="fill:rgb(25,118,210);fill-rule:nonzero;"/>
    </g>
</svg>
